<svg width="18" height="19" viewBox="0 0 18 19" fill="none" xmlns="http://www.w3.org/2000/svg">
<path d="M7.5 14H10.5" stroke="url(#paint0_linear_210_132)" stroke-linecap="round" stroke-linejoin="round"/>
<path fill-rule="evenodd" clip-rule="evenodd" d="M12.7342 2.75H5.26575C4.85175 2.75 4.51575 3.086 4.51575 3.5V5.2835C4.51575 5.59925 4.6155 5.9075 4.80075 6.16325L7.21575 9.5L4.80075 12.8368C4.6155 13.0925 4.51575 13.4007 4.51575 13.7165V15.5C4.51575 15.914 4.85175 16.25 5.26575 16.25H12.7335C13.1475 16.25 13.4835 15.914 13.4835 15.5V13.7435C13.4835 13.4105 13.3725 13.0873 13.1685 12.824L10.5907 9.5L13.1692 6.17525C13.3732 5.912 13.4842 5.58875 13.4842 5.25575V3.5C13.4842 3.086 13.1482 2.75 12.7342 2.75Z" stroke="url(#paint1_linear_210_132)" stroke-linecap="round" stroke-linejoin="round"/>
<defs>
<linearGradient id="paint0_linear_210_132" x1="7.5" y1="14" x2="10.5" y2="14" gradientUnits="userSpaceOnUse">
<stop stop-color="#7AD1EC"/>
<stop offset="0.0625" stop-color="#78C6ED"/>
<stop offset="0.125" stop-color="#76BAEE"/>
<stop offset="0.1875" stop-color="#74AEEF"/>
<stop offset="0.25" stop-color="#72A1F0"/>
<stop offset="0.3125" stop-color="#7094F2"/>
<stop offset="0.375" stop-color="#6E85F3"/>
<stop offset="0.4375" stop-color="#6C77F4"/>
<stop offset="0.5" stop-color="#6D6AF5"/>
<stop offset="0.5625" stop-color="#7868F6"/>
<stop offset="0.625" stop-color="#8566F7"/>
<stop offset="0.6875" stop-color="#9264F9"/>
<stop offset="0.75" stop-color="#A062FA"/>
<stop offset="0.8125" stop-color="#AF5FFB"/>
<stop offset="0.875" stop-color="#BE5DFC"/>
<stop offset="0.9375" stop-color="#CE5BFE"/>
<stop offset="1" stop-color="#DE59FF"/>
</linearGradient>
<linearGradient id="paint1_linear_210_132" x1="4.51575" y1="9.5" x2="13.4842" y2="9.5" gradientUnits="userSpaceOnUse">
<stop stop-color="#7AD1EC"/>
<stop offset="0.0625" stop-color="#78C6ED"/>
<stop offset="0.125" stop-color="#76BAEE"/>
<stop offset="0.1875" stop-color="#74AEEF"/>
<stop offset="0.25" stop-color="#72A1F0"/>
<stop offset="0.3125" stop-color="#7094F2"/>
<stop offset="0.375" stop-color="#6E85F3"/>
<stop offset="0.4375" stop-color="#6C77F4"/>
<stop offset="0.5" stop-color="#6D6AF5"/>
<stop offset="0.5625" stop-color="#7868F6"/>
<stop offset="0.625" stop-color="#8566F7"/>
<stop offset="0.6875" stop-color="#9264F9"/>
<stop offset="0.75" stop-color="#A062FA"/>
<stop offset="0.8125" stop-color="#AF5FFB"/>
<stop offset="0.875" stop-color="#BE5DFC"/>
<stop offset="0.9375" stop-color="#CE5BFE"/>
<stop offset="1" stop-color="#DE59FF"/>
</linearGradient>
</defs>
</svg>
