<svg width="42" height="42" viewBox="0 0 42 42" fill="none" xmlns="http://www.w3.org/2000/svg">
<rect x="0.333496" y="0.5" width="41" height="41" rx="8.8052" fill="#2A2630"/>
<path d="M20.8305 17.5743C18.9442 17.5743 17.4049 19.1137 17.4049 21C17.4049 22.8863 18.9442 24.4257 20.8305 24.4257C22.7168 24.4257 24.2562 22.8863 24.2562 21C24.2562 19.1137 22.7168 17.5743 20.8305 17.5743ZM31.1049 21C31.1049 19.5814 31.1177 18.1757 31.038 16.7596C30.9584 15.1149 30.5832 13.6552 29.3805 12.4524C28.1752 11.2472 26.7181 10.8745 25.0734 10.7948C23.6548 10.7152 22.2491 10.728 20.8331 10.728C19.4145 10.728 18.0088 10.7152 16.5928 10.7948C14.9481 10.8745 13.4884 11.2497 12.2857 12.4524C11.0804 13.6577 10.7078 15.1149 10.6281 16.7596C10.5485 18.1782 10.5613 19.584 10.5613 21C10.5613 22.416 10.5485 23.8243 10.6281 25.2404C10.7078 26.8851 11.083 28.3448 12.2857 29.5475C13.491 30.7528 14.9481 31.1255 16.5928 31.2051C18.0114 31.2848 19.4171 31.272 20.8331 31.272C22.2516 31.272 23.6574 31.2848 25.0734 31.2051C26.7181 31.1255 28.1778 30.7503 29.3805 29.5475C30.5857 28.3422 30.9584 26.8851 31.038 25.2404C31.1203 23.8243 31.1049 22.4186 31.1049 21ZM20.8305 26.2709C17.9137 26.2709 15.5597 23.9168 15.5597 21C15.5597 18.0831 17.9137 15.7291 20.8305 15.7291C23.7473 15.7291 26.1013 18.0831 26.1013 21C26.1013 23.9168 23.7473 26.2709 20.8305 26.2709ZM26.3172 16.7442C25.6362 16.7442 25.0862 16.1942 25.0862 15.5132C25.0862 14.8322 25.6362 14.2822 26.3172 14.2822C26.9982 14.2822 27.5482 14.8322 27.5482 15.5132C27.5484 15.6749 27.5167 15.8351 27.4549 15.9845C27.3931 16.134 27.3024 16.2698 27.1881 16.3841C27.0737 16.4985 26.9379 16.5891 26.7885 16.6509C26.6391 16.7127 26.4789 16.7444 26.3172 16.7442Z" fill="#DE59FF"/>
</svg>
