<svg width="41" height="42" viewBox="0 0 41 42" fill="none" xmlns="http://www.w3.org/2000/svg">
<rect y="0.5" width="41" height="41" rx="8.8052" fill="#2A2630"/>
<path d="M29.0216 12.3503C29.0216 12.3503 30.922 11.588 30.7631 13.4391C30.7107 14.2014 30.2357 16.8696 29.8659 19.7552L28.599 28.3037C28.599 28.3037 28.4933 29.5561 27.5429 29.7739C26.5929 29.9913 25.1674 29.0116 24.9033 28.7938C24.692 28.6303 20.9439 26.1799 19.6242 24.9824C19.2543 24.6554 18.8317 24.0023 19.677 23.24L25.2198 17.7949C25.8533 17.1418 26.4867 15.6172 23.8472 17.4683L16.4558 22.6407C16.4558 22.6407 15.611 23.1857 14.0276 22.6956L10.5955 21.6063C10.5955 21.6063 9.32859 20.7896 11.4932 19.973C16.7728 17.414 23.2665 14.8006 29.0206 12.3503H29.0216Z" fill="#DE59FF"/>
</svg>
