<svg width="41" height="42" viewBox="0 0 41 42" fill="none" xmlns="http://www.w3.org/2000/svg">
<rect y="0.5" width="41" height="41" rx="8.8052" fill="#2A2630"/>
<path d="M23.4104 12.9286C23.2067 13.2983 23.0252 13.6801 22.8669 14.072C21.3109 13.8225 19.726 13.8225 18.1701 14.072C18.0117 13.6801 17.8302 13.2983 17.6266 12.9286C16.1609 13.1824 14.7361 13.637 13.3913 14.2799C10.9864 17.7977 9.89581 22.0685 10.3148 26.3272C11.882 27.5214 13.6409 28.4322 15.5141 29.0194C15.9406 28.4484 16.3212 27.8435 16.6524 27.2108C16.0412 26.9824 15.4539 26.6934 14.8988 26.348C15.051 26.2453 15.195 26.1306 15.3295 26.005C16.9482 26.7953 18.7218 27.2057 20.5185 27.2057C22.3152 27.2057 24.0888 26.7953 25.7075 26.005C25.8511 26.1297 25.9946 26.2441 26.1382 26.348C25.5801 26.6907 24.9933 26.9829 24.3846 27.2212C24.702 27.8683 25.0725 28.4872 25.4921 29.0714C27.3629 28.4862 29.1188 27.5752 30.6811 26.3792C31.1102 22.1197 30.0187 17.8454 27.6047 14.3318C26.2749 13.6757 24.8642 13.2037 23.4104 12.9286ZM17.1138 23.8949C16.6007 23.8575 16.1217 23.6201 15.7775 23.2325C15.4334 22.8449 15.2507 22.3372 15.2679 21.816C15.2481 21.2941 15.4299 20.7849 15.7745 20.3967C16.1192 20.0085 16.5997 19.7718 17.1138 19.737C17.628 19.7718 18.1084 20.0085 18.4531 20.3967C18.7978 20.7849 18.9796 21.2941 18.9597 21.816C18.9796 22.3379 18.7978 22.847 18.4531 23.2352C18.1084 23.6234 17.628 23.8601 17.1138 23.8949ZM23.9231 23.8949C23.41 23.8575 22.931 23.6201 22.5868 23.2325C22.2426 22.8449 22.06 22.3372 22.0772 21.816C22.0574 21.2941 22.2391 20.7849 22.5838 20.3967C22.9285 20.0085 23.409 19.7718 23.9231 19.737C24.4382 19.7692 24.9202 20.0051 25.2654 20.3939C25.6107 20.7827 25.7915 21.2934 25.769 21.816C25.7915 22.3386 25.6107 22.8492 25.2654 23.238C24.9202 23.6268 24.4382 23.8627 23.9231 23.8949Z" fill="#DE59FF"/>
</svg>
