<svg width="42" height="42" viewBox="0 0 42 42" fill="none" xmlns="http://www.w3.org/2000/svg">
<rect x="0.666504" y="0.5" width="41" height="41" rx="8" fill="#1DA1F2"/>
<path d="M31.439 14.2867C30.6835 14.6306 29.8612 14.878 29.0143 14.9744C29.8936 14.4233 30.5521 13.5526 30.8662 12.5257C30.0411 13.0435 29.1372 13.4066 28.1946 13.5989C27.8006 13.1546 27.3242 12.8006 26.7949 12.559C26.2656 12.3174 25.6948 12.1935 25.1181 12.1948C22.7848 12.1948 20.9083 14.1903 20.9083 16.6391C20.9083 16.983 20.9478 17.3268 21.012 17.6577C17.5182 17.4649 14.4022 15.7039 12.3306 13.0076C11.9531 13.6878 11.7553 14.4623 11.7577 15.2506C11.7577 16.7928 12.5009 18.1526 13.6343 18.9524C12.9664 18.9246 12.3141 18.731 11.7306 18.3871V18.4418C11.7306 20.6014 13.1775 22.3911 15.1059 22.8027C14.7438 22.9019 14.3713 22.9527 13.9972 22.9538C13.7232 22.9538 13.4639 22.9252 13.2022 22.8861C13.7355 24.6471 15.2886 25.9262 17.1379 25.9679C15.691 27.1636 13.8787 27.867 11.9108 27.867C11.5577 27.867 11.2318 27.854 10.8936 27.8123C12.7602 29.0758 14.975 29.8052 17.3602 29.8052C25.1033 29.8052 29.3403 23.0372 29.3403 17.1627C29.3403 16.9699 29.3403 16.7772 29.3279 16.5844C30.1477 15.9513 30.8662 15.1672 31.439 14.2867Z" fill="#FAFAFA"/>
</svg>
