<svg width="214" height="40" viewBox="0 0 214 40" fill="none" xmlns="http://www.w3.org/2000/svg">
<g clip-path="url(#clip0_210_57)">
<path d="M20.0036 0H19.9964C8.95267 0 0 8.91373 0 19.9094V20.0906C0 31.0863 8.95267 40 19.9964 40H20.0036C31.0473 40 40 31.0863 40 20.0906V19.9094C40 8.91373 31.0473 0 20.0036 0Z" fill="url(#paint0_linear_210_57)"/>
<path d="M33.9979 17.0965L27.0933 10.2285L24.5512 12.7529L24.5379 12.7661L26.4577 14.6776L30.304 18.5071L30.2709 18.54L28.0598 20.7349L23.7899 16.4902L18.1629 10.8745L16.6734 12.3509L15.3163 10.9865L14.2041 12.0938L14.1909 12.107L6.02843 20.2142L7.39877 21.5786L6.00195 22.9627L12.8338 29.7714L15.3428 27.2734L9.65619 21.6049L16.7131 14.5853L16.7462 14.5523L19.7384 17.5316V17.5382L21.5722 19.3639L22.5056 20.2933L25.5045 23.2791L25.4647 23.312H25.4714L23.2139 25.553L17.5274 19.8846L15.0118 22.3827L21.8436 29.1914L23.2338 27.8006L24.6041 29.1716L32.76 21.0513L32.7666 21.0381L33.8854 19.9308L32.515 18.573L33.9979 17.0965Z" fill="url(#paint1_linear_210_57)"/>
</g>
<path d="M64.238 12.072V17.756H61.048V15.32H56.901V24.31H64.151V27.529H55.451V25.76H53.711V13.957H55.451V12.072H64.238ZM70.9755 12.043V17.002H76.1665V18.829H78.1965V27.5H75.1515V20.192H70.9755V27.5H67.7855V12.043H70.9755ZM89.7029 17.002V18.829H91.7329V27.471H83.3809V25.673H81.3219V21.207H88.6879V20.192H83.3809V17.002H89.7029ZM88.6879 23.179H84.3959V24.281H88.6879V23.179ZM98.2197 17.031V27.442H95.0297V17.031H98.2197ZM98.2197 12.101V15.262H95.0297V12.101H98.2197ZM109.896 17.002V18.829H111.955V27.5H108.881V20.192H104.734V27.5H101.515V17.031L109.896 17.002ZM126.007 12.072V15.291H118.699V17.002H124.296V20.192H118.699V24.31H126.007V27.529L115.509 27.5V12.072H126.007ZM137.905 17.002V18.829H139.964V27.5H136.89V20.192H132.743V27.5H129.524V17.031L137.905 17.002ZM146.65 16.886H151.667V20.076H146.65V24.252H151.638L151.609 27.471H145.635V25.673H143.576V14.537H146.65V16.886ZM158.117 17.031V27.442H154.927V17.031H158.117ZM158.117 12.101V15.262H154.927V12.101H158.117ZM164.718 16.886H169.735V20.076H164.718V24.252H169.706L169.677 27.471H163.703V25.673H161.644V14.537H164.718V16.886ZM176.185 17.031V27.442H172.995V17.031H176.185ZM176.185 12.101V15.262H172.995V12.101H176.185ZM181.714 27.471V25.644H179.655V18.8H181.714V17.002H188.007V18.8H190.066V23.208L182.729 23.179V24.281H188.036V27.471H181.714ZM182.729 21.236H186.992V20.221H182.729V21.236ZM204.035 16.915V20.105H196.756V21.207C197.916 21.207 199.134 21.2167 200.41 21.236C201.686 21.236 202.904 21.236 204.064 21.236V25.644H202.208V27.471H193.537V24.31H200.845V23.179H193.537V18.742H195.364V16.886L204.035 16.915Z" fill="#FAFAFA"/>
<path d="M211.32 24.252V27.471H208.101V24.252H211.32Z" fill="#DE59FF"/>
<defs>
<linearGradient id="paint0_linear_210_57" x1="0" y1="0" x2="40" y2="40" gradientUnits="userSpaceOnUse">
<stop stop-color="#323170"/>
<stop offset="1" stop-color="#240F2A"/>
</linearGradient>
<linearGradient id="paint1_linear_210_57" x1="6.00195" y1="20" x2="33.9979" y2="20" gradientUnits="userSpaceOnUse">
<stop stop-color="#7AD1EC"/>
<stop offset="0.0625" stop-color="#78C6ED"/>
<stop offset="0.125" stop-color="#76BAEE"/>
<stop offset="0.1875" stop-color="#74AEEF"/>
<stop offset="0.25" stop-color="#72A1F0"/>
<stop offset="0.3125" stop-color="#7094F2"/>
<stop offset="0.375" stop-color="#6E85F3"/>
<stop offset="0.4375" stop-color="#6C77F4"/>
<stop offset="0.5" stop-color="#6D6AF5"/>
<stop offset="0.5625" stop-color="#7868F6"/>
<stop offset="0.625" stop-color="#8566F7"/>
<stop offset="0.6875" stop-color="#9264F9"/>
<stop offset="0.75" stop-color="#A062FA"/>
<stop offset="0.8125" stop-color="#AF5FFB"/>
<stop offset="0.875" stop-color="#BE5DFC"/>
<stop offset="0.9375" stop-color="#CE5BFE"/>
<stop offset="1" stop-color="#DE59FF"/>
</linearGradient>
<clipPath id="clip0_210_57">
<rect width="40" height="40" fill="white"/>
</clipPath>
</defs>
</svg>
