<svg width="20" height="16" viewBox="0 0 20 16" fill="none" xmlns="http://www.w3.org/2000/svg">
<path d="M19.75 1.96017C19.0328 2.26954 18.2524 2.4922 17.4485 2.57892C18.2831 2.08307 18.9081 1.2997 19.2063 0.375795C18.4231 0.841707 17.5651 1.16841 16.6703 1.34142C16.2964 0.941638 15.8441 0.623154 15.3417 0.405812C14.8392 0.188471 14.2974 0.0769293 13.75 0.0781385C11.5352 0.0781385 9.75393 1.87345 9.75393 4.07658C9.75393 4.38595 9.79143 4.69533 9.85237 4.99298C6.53596 4.81954 3.57815 3.23517 1.61174 0.809389C1.25344 1.42138 1.06568 2.1182 1.06799 2.82736C1.06799 4.21486 1.77346 5.43829 2.84924 6.15783C2.21527 6.13286 1.59614 5.9586 1.04221 5.64923V5.69845C1.04221 7.64142 2.41565 9.25158 4.24612 9.62189C3.90243 9.71116 3.54887 9.75683 3.19377 9.75783C2.93362 9.75783 2.68752 9.73205 2.43909 9.69689C2.94534 11.2813 4.41956 12.432 6.17502 12.4695C4.80159 13.5453 3.08127 14.1781 1.21331 14.1781C0.878149 14.1781 0.568774 14.1664 0.247681 14.1289C2.01956 15.2656 4.1219 15.9219 6.38596 15.9219C13.736 15.9219 17.7578 9.83283 17.7578 4.54767C17.7578 4.37423 17.7578 4.20079 17.7461 4.02736C18.5242 3.45783 19.2063 2.75236 19.75 1.96017Z" fill="#DE59FF"/>
</svg>
