<svg width="15" height="12" viewBox="0 0 15 12" fill="none" xmlns="http://www.w3.org/2000/svg">
<path d="M0 6.375C0 6.16789 0.167893 6 0.375 6H2.625C2.83211 6 3 6.16789 3 6.375V8.625C3 8.83211 2.83211 9 2.625 9H0.375C0.167893 9 0 8.83211 0 8.625V6.375Z" fill="#7AD1EC"/>
<path d="M3 9.375C3 9.16789 3.16789 9 3.375 9H5.625C5.83211 9 6 9.16789 6 9.375V11.625C6 11.8321 5.83211 12 5.625 12H3.375C3.16789 12 3 11.8321 3 11.625V9.375Z" fill="#7AD1EC"/>
<path d="M6 6.375C6 6.16789 6.16789 6 6.375 6H8.625C8.83211 6 9 6.16789 9 6.375V8.625C9 8.83211 8.83211 9 8.625 9H6.375C6.16789 9 6 8.83211 6 8.625V6.375Z" fill="#7AD1EC"/>
<path d="M9 3.375C9 3.16789 9.16789 3 9.375 3H11.625C11.8321 3 12 3.16789 12 3.375V5.625C12 5.83211 11.8321 6 11.625 6H9.375C9.16789 6 9 5.83211 9 5.625V3.375Z" fill="#7AD1EC"/>
<path d="M12 0.375C12 0.167893 12.1679 0 12.375 0H14.625C14.8321 0 15 0.167893 15 0.375V2.625C15 2.83211 14.8321 3 14.625 3H12.375C12.1679 3 12 2.83211 12 2.625V0.375Z" fill="#7AD1EC"/>
</svg>
