<svg width="15" height="15" viewBox="0 0 15 15" fill="none" xmlns="http://www.w3.org/2000/svg">
<path d="M3 3.5C3 3.22386 3.22386 3 3.5 3H5.5C5.77614 3 6 3.22386 6 3.5V5.5C6 5.77614 5.77614 6 5.5 6H3.5C3.22386 6 3 5.77614 3 5.5V3.5Z" fill="#ED0606"/>
<path d="M0 0.5C0 0.223858 0.223858 0 0.5 0H2.5C2.77614 0 3 0.223858 3 0.5V2.5C3 2.77614 2.77614 3 2.5 3H0.5C0.223858 3 0 2.77614 0 2.5V0.5Z" fill="#ED0606"/>
<path d="M6 6.5C6 6.22386 6.22386 6 6.5 6H8.5C8.77614 6 9 6.22386 9 6.5V8.5C9 8.77614 8.77614 9 8.5 9H6.5C6.22386 9 6 8.77614 6 8.5V6.5Z" fill="#ED0606"/>
<path d="M9 9.5C9 9.22386 9.22386 9 9.5 9H11.5C11.7761 9 12 9.22386 12 9.5V11.5C12 11.7761 11.7761 12 11.5 12H9.5C9.22386 12 9 11.7761 9 11.5V9.5Z" fill="#ED0606"/>
<path d="M12 12.5C12 12.2239 12.2239 12 12.5 12H14.5C14.7761 12 15 12.2239 15 12.5V14.5C15 14.7761 14.7761 15 14.5 15H12.5C12.2239 15 12 14.7761 12 14.5V12.5Z" fill="#ED0606"/>
<path d="M3 9.5C3 9.22386 3.22386 9 3.5 9H5.5C5.77614 9 6 9.22386 6 9.5V11.5C6 11.7761 5.77614 12 5.5 12H3.5C3.22386 12 3 11.7761 3 11.5V9.5Z" fill="#ED0606"/>
<path d="M0 12.5C0 12.2239 0.223858 12 0.5 12H2.5C2.77614 12 3 12.2239 3 12.5V14.5C3 14.7761 2.77614 15 2.5 15H0.5C0.223858 15 0 14.7761 0 14.5V12.5Z" fill="#ED0606"/>
<path d="M9 3.5C9 3.22386 9.22386 3 9.5 3H11.5C11.7761 3 12 3.22386 12 3.5V5.5C12 5.77614 11.7761 6 11.5 6H9.5C9.22386 6 9 5.77614 9 5.5V3.5Z" fill="#ED0606"/>
<path d="M12 0.5C12 0.223858 12.2239 0 12.5 0H14.5C14.7761 0 15 0.223858 15 0.5V2.5C15 2.77614 14.7761 3 14.5 3H12.5C12.2239 3 12 2.77614 12 2.5V0.5Z" fill="#ED0606"/>
</svg>
