<svg width="21" height="16" viewBox="0 0 21 16" fill="none" xmlns="http://www.w3.org/2000/svg">
<path d="M13.82 0.260002C13.6214 0.615689 13.4444 0.983022 13.29 1.36C11.7728 1.12005 10.2273 1.12005 8.71004 1.36C8.55563 0.983022 8.37864 0.615689 8.18004 0.260002C6.75083 0.504203 5.36144 0.941539 4.05004 1.56C1.70498 4.94429 0.641476 9.05296 1.05004 13.15C2.57828 14.2989 4.2935 15.1751 6.12004 15.74C6.53595 15.1906 6.90714 14.6087 7.23004 14C6.63411 13.7803 6.06134 13.5023 5.52004 13.17C5.6685 13.0712 5.80894 12.9609 5.94004 12.84C7.5185 13.6003 9.24801 13.9951 11 13.9951C12.7521 13.9951 14.4816 13.6003 16.06 12.84C16.2 12.96 16.34 13.07 16.48 13.17C15.9358 13.4996 15.3636 13.7807 14.77 14.01C15.0795 14.6325 15.4408 15.228 15.85 15.79C17.6743 15.227 19.3866 14.3506 20.91 13.2C21.3284 9.10221 20.264 4.99019 17.91 1.61C16.6134 0.97874 15.2377 0.524673 13.82 0.260002ZM7.68004 10.81C7.17962 10.7741 6.71258 10.5457 6.37696 10.1728C6.04134 9.79986 5.86323 9.31143 5.88004 8.81C5.8607 8.30792 6.03793 7.81809 6.37405 7.44461C6.71018 7.07114 7.1787 6.84347 7.68004 6.81C8.18138 6.84347 8.6499 7.07114 8.98603 7.44461C9.32215 7.81809 9.49938 8.30792 9.48004 8.81C9.49938 9.31209 9.32215 9.80192 8.98603 10.1754C8.6499 10.5489 8.18138 10.7765 7.68004 10.81ZM14.32 10.81C13.8196 10.7741 13.3526 10.5457 13.017 10.1728C12.6813 9.79986 12.5032 9.31143 12.52 8.81C12.5007 8.30792 12.6779 7.81809 13.0141 7.44461C13.3502 7.07114 13.8187 6.84347 14.32 6.81C14.8223 6.84098 15.2923 7.0679 15.629 7.44195C15.9656 7.81599 16.142 8.30725 16.12 8.81C16.142 9.31275 15.9656 9.80401 15.629 10.1781C15.2923 10.5521 14.8223 10.779 14.32 10.81Z" fill="#DE59FF"/>
</svg>
