<svg width="20" height="20" viewBox="0 0 20 20" fill="none" xmlns="http://www.w3.org/2000/svg">
<path d="M9.99999 6.87577C8.27968 6.87577 6.87577 8.27968 6.87577 9.99999C6.87577 11.7203 8.27968 13.1242 9.99999 13.1242C11.7203 13.1242 13.1242 11.7203 13.1242 9.99999C13.1242 8.27968 11.7203 6.87577 9.99999 6.87577ZM19.3703 9.99999C19.3703 8.70624 19.382 7.42421 19.3094 6.1328C19.2367 4.6328 18.8945 3.30155 17.7976 2.20468C16.6984 1.10546 15.3695 0.765616 13.8695 0.692959C12.5758 0.620303 11.2937 0.632022 10.0023 0.632022C8.70858 0.632022 7.42655 0.620303 6.13515 0.692959C4.63515 0.765616 3.3039 1.1078 2.20702 2.20468C1.1078 3.3039 0.767958 4.6328 0.695302 6.1328C0.622645 7.42655 0.634364 8.70858 0.634364 9.99999C0.634364 11.2914 0.622645 12.5758 0.695302 13.8672C0.767958 15.3672 1.11015 16.6984 2.20702 17.7953C3.30624 18.8945 4.63515 19.2344 6.13515 19.307C7.42889 19.3797 8.71093 19.368 10.0023 19.368C11.2961 19.368 12.5781 19.3797 13.8695 19.307C15.3695 19.2344 16.7008 18.8922 17.7976 17.7953C18.8969 16.6961 19.2367 15.3672 19.3094 13.8672C19.3844 12.5758 19.3703 11.2937 19.3703 9.99999ZM9.99999 14.807C7.33983 14.807 5.19296 12.6601 5.19296 9.99999C5.19296 7.33983 7.33983 5.19296 9.99999 5.19296C12.6601 5.19296 14.807 7.33983 14.807 9.99999C14.807 12.6601 12.6601 14.807 9.99999 14.807ZM15.0039 6.11874C14.3828 6.11874 13.8812 5.61718 13.8812 4.99608C13.8812 4.37499 14.3828 3.87343 15.0039 3.87343C15.625 3.87343 16.1266 4.37499 16.1266 4.99608C16.1267 5.14357 16.0978 5.28963 16.0415 5.42593C15.9851 5.56222 15.9024 5.68605 15.7981 5.79033C15.6939 5.89462 15.57 5.97731 15.4337 6.03366C15.2974 6.09001 15.1514 6.11893 15.0039 6.11874Z" fill="#DE59FF"/>
</svg>
