<svg width="22" height="18" viewBox="0 0 22 18" fill="none" xmlns="http://www.w3.org/2000/svg">
<path d="M19.71 0.654493C19.71 0.654493 21.6525 -0.103007 21.49 1.73649C21.4365 2.49399 20.951 5.14549 20.573 8.01299L19.278 16.508C19.278 16.508 19.17 17.7525 18.1985 17.969C17.2275 18.185 15.7705 17.2115 15.5005 16.995C15.2845 16.8325 11.4535 14.3975 10.1045 13.2075C9.72654 12.8825 9.29454 12.2335 10.1585 11.476L15.824 6.06499C16.4715 5.41599 17.119 3.90099 14.421 5.74049L6.86604 10.8805C6.86604 10.8805 6.00254 11.422 4.38404 10.935L0.876037 9.85249C0.876037 9.85249 -0.418963 9.04099 1.79354 8.22949C7.19004 5.68649 13.8275 3.08949 19.709 0.654493H19.71Z" fill="#DE59FF"/>
</svg>
