<svg width="15" height="12" viewBox="0 0 15 12" fill="none" xmlns="http://www.w3.org/2000/svg">
<path d="M14.5 1.42545C13.9852 1.65977 13.4249 1.82841 12.8478 1.89409C13.4469 1.51853 13.8956 0.925213 14.1097 0.225451C13.5474 0.578331 12.9315 0.825776 12.2892 0.956811C12.0208 0.654018 11.6961 0.4128 11.3354 0.248186C10.9747 0.0835725 10.5858 -0.000908491 10.1928 7.36757e-06C8.60287 7.36757e-06 7.32418 1.35977 7.32418 3.02841C7.32418 3.26273 7.3511 3.49705 7.39485 3.72249C5.01412 3.59113 2.89082 2.39113 1.47921 0.553853C1.222 1.01737 1.08721 1.54514 1.08887 2.08225C1.08887 3.13314 1.5953 4.05977 2.36756 4.60474C1.91246 4.58583 1.46801 4.45385 1.07036 4.21953V4.25681C1.07036 5.72841 2.0563 6.94793 3.37033 7.22841C3.12361 7.29602 2.8698 7.33061 2.61489 7.33136C2.42813 7.33136 2.25147 7.31184 2.07313 7.28521C2.43655 8.48521 3.49483 9.35681 4.75502 9.38521C3.76908 10.2 2.53413 10.6793 1.19319 10.6793C0.95259 10.6793 0.730501 10.6704 0.5 10.642C1.77196 11.503 3.28116 12 4.90644 12C10.1827 12 13.0699 7.38817 13.0699 3.38521C13.0699 3.25385 13.0699 3.12249 13.0615 2.99113C13.6201 2.55977 14.1097 2.02545 14.5 1.42545Z" fill="#FAFAFA"/>
</svg>
